<svg viewBox="0 0 200 200" xmlns="http://www.w3.org/2000/svg">
  <!-- Pizza circle -->
  <circle cx="100" cy="100" r="95" fill="#D4AF37" stroke="#8B7500" stroke-width="2"/>
  <!-- Cheese base -->
  <circle cx="100" cy="100" r="90" fill="#FDB914"/>
  <!-- Truffle oil shine -->
  <circle cx="100" cy="100" r="85" fill="#8B7355" opacity="0.15"/>
  <!-- Mushroom caps - cremini -->
  <ellipse cx="70" cy="75" rx="12" ry="10" fill="#8B6F47" opacity="0.9"/>
  <ellipse cx="100" cy="65" rx="14" ry="11" fill="#8B6F47" opacity="0.9"/>
  <ellipse cx="130" cy="80" rx="12" ry="10" fill="#8B6F47" opacity="0.9"/>
  <ellipse cx="75" cy="115" rx="13" ry="11" fill="#8B6F47" opacity="0.9"/>
  <ellipse cx="115" cy="120" rx="14" ry="11" fill="#8B6F47" opacity="0.9"/>
  <ellipse cx="95" cy="135" rx="12" ry="10" fill="#8B6F47" opacity="0.9"/>
  <!-- Mushroom gills/detail -->
  <path d="M 65 75 L 70 85" stroke="#D2B48C" stroke-width="1" opacity="0.6"/>
  <path d="M 75 75 L 78 85" stroke="#D2B48C" stroke-width="1" opacity="0.6"/>
  <path d="M 95 65 L 98 76" stroke="#D2B48C" stroke-width="1" opacity="0.6"/>
  <path d="M 105 65 L 107 76" stroke="#D2B48C" stroke-width="1" opacity="0.6"/>
  <!-- Sautéed mushrooms - lighter -->
  <ellipse cx="55" cy="105" rx="11" ry="9" fill="#B8956A" opacity="0.8"/>
  <ellipse cx="140" cy="95" rx="11" ry="9" fill="#B8956A" opacity="0.8"/>
  <!-- Cheese streaks -->
  <path d="M 60 85 Q 100 95, 140 80" stroke="#FFF" stroke-width="2.5" fill="none" opacity="0.6"/>
  <path d="M 70 130 Q 100 125, 130 135" stroke="#FFF" stroke-width="2" fill="none" opacity="0.5"/>
  <!-- Truffle oil drizzle -->
  <path d="M 50 100 Q 80 105, 100 95" stroke="#2F1B3C" stroke-width="1.5" fill="none" opacity="0.4"/>
  <!-- Crust -->
  <circle cx="100" cy="100" r="100" fill="none" stroke="#D2691E" stroke-width="8"/>
</svg>